<svg width="56" height="56" viewBox="0 0 56 56" fill="none" xmlns="http://www.w3.org/2000/svg">
<g clip-path="url(#clip0_622_2973)">
<g clip-path="url(#clip1_622_2973)">
<path d="M6.83051 18.7915L13.9098 10.6061C14.2552 10.2068 14.9033 10.5457 14.7724 11.0571L13.3448 16.6353C13.2592 16.9696 13.53 17.288 13.8737 17.2573L16.6881 17.0057C17.1463 16.9647 17.412 17.512 17.0964 17.8467L8.9325 26.505C8.57309 26.8862 7.94391 26.5282 8.08799 26.0245L9.80151 20.0342C9.89911 19.693 9.62006 19.3615 9.2672 19.3996L7.26228 19.6157C6.81094 19.6643 6.53356 19.1348 6.83051 18.7915Z" fill="#4A48C6"/>
<path d="M11.5 46.625C14.9518 46.625 17.75 43.8268 17.75 40.375C17.75 36.9232 14.9518 34.125 11.5 34.125C8.04822 34.125 5.25 36.9232 5.25 40.375C5.25 43.8268 8.04822 46.625 11.5 46.625Z" stroke="#4A48C6" stroke-width="3" stroke-miterlimit="10"/>
<path d="M2.02734 52.0936C2.98724 50.4307 4.368 49.0498 6.03081 48.0896C7.69363 47.1295 9.5799 46.624 11.5 46.624C13.4201 46.624 15.3064 47.1295 16.9692 48.0896C18.632 49.0498 20.0128 50.4307 20.9727 52.0936" stroke="#4A48C6" stroke-width="3" stroke-linecap="round" stroke-linejoin="round"/>
<path opacity="0.2" d="M51.9062 3.5H25.0938C24.7705 3.5 24.4605 3.6317 24.232 3.86612C24.0034 4.10054 23.875 4.41848 23.875 4.75V27.25C23.875 27.5815 24.0034 27.8995 24.232 28.1339C24.4605 28.3683 24.7705 28.5 25.0938 28.5H28.1559C28.9121 26.3062 30.313 24.4068 32.1656 23.0636C34.0182 21.7204 36.2313 20.9994 38.5 21C37.2948 21 36.1166 20.6334 35.1145 19.9467C34.1124 19.2599 33.3313 18.2838 32.8701 17.1418C32.4089 15.9997 32.2882 14.7431 32.5233 13.5307C32.7585 12.3183 33.3388 11.2047 34.1911 10.3306C35.0433 9.4565 36.1291 8.86125 37.3112 8.62009C38.4932 8.37893 39.7185 8.5027 40.832 8.97575C41.9455 9.4488 42.8972 10.2499 43.5668 11.2777C44.2364 12.3055 44.5938 13.5139 44.5938 14.75C44.5938 16.4076 43.9517 17.9973 42.8089 19.1694C41.6661 20.3415 40.1162 21 38.5 21C40.7687 20.9994 42.9818 21.7204 44.8344 23.0636C46.687 24.4068 48.0879 26.3062 48.8441 28.5H51.9062C52.2295 28.5 52.5395 28.3683 52.768 28.1339C52.9966 27.8995 53.125 27.5815 53.125 27.25V4.75C53.125 4.41848 52.9966 4.10054 52.768 3.86612C52.5395 3.6317 52.2295 3.5 51.9062 3.5Z" fill="#4A48C6"/>
<path d="M38.5 21C41.8655 21 44.5938 18.2018 44.5938 14.75C44.5938 11.2982 41.8655 8.5 38.5 8.5C35.1345 8.5 32.4062 11.2982 32.4062 14.75C32.4062 18.2018 35.1345 21 38.5 21Z" stroke="#4A48C6" stroke-width="3" stroke-linecap="round" stroke-linejoin="round"/>
<path d="M51.9062 3.5H25.0938C24.4207 3.5 23.875 4.05964 23.875 4.75V27.25C23.875 27.9404 24.4207 28.5 25.0938 28.5H51.9062C52.5793 28.5 53.125 27.9404 53.125 27.25V4.75C53.125 4.05964 52.5793 3.5 51.9062 3.5Z" stroke="#4A48C6" stroke-width="3" stroke-linecap="round" stroke-linejoin="round"/>
<path d="M28.1558 28.5C28.9107 26.3047 30.3111 24.4037 32.1638 23.059C34.0165 21.7143 36.2302 20.9922 38.4999 20.9922C40.7696 20.9922 42.9833 21.7143 44.836 23.059C46.6887 24.4037 48.0891 26.3047 48.844 28.5" stroke="#4A48C6" stroke-width="3" stroke-linecap="round" stroke-linejoin="round"/>
<path d="M24 44H33C36.3137 44 39 41.3137 39 38V29" stroke="#4A48C6" stroke-width="3" stroke-linecap="round" stroke-linejoin="round"/>
</g>
</g>
<defs>
<clipPath id="clip0_622_2973">
<rect width="56" height="56" fill="white"/>
</clipPath>
<clipPath id="clip1_622_2973">
<rect width="56" height="56" fill="white"/>
</clipPath>
</defs>
</svg>
